<svg xmlns="http://www.w3.org/2000/svg" viewBox="0 0 64 64" width="512px" height="512px">
    <path fill="#8b8e98"
          d="M62,45l-6,4l2,3h-9l-28,1l-11,1l3-5c0,0-3-2-7-2c0,0,2-2.62,6-4c0,0-3.16-4.37-7.88-6.79 C3.14,35.7,2.1,35.28,1,35c3.01-3.01,7.11-5,12-5c1.9,0,3.76,0.03,5.89,0.96c0.04,0.01,0.07,0.02,0.11,0.04 c-0.02-0.07-0.04-0.14-0.07-0.2c-0.34-1.07-0.74-2.09-1.18-3.07c-1.91-4.25-4.69-7.68-8.17-10.67C8.76,16.35,7.9,15.66,7,15 c0,0,3-2,8.5-2c3.76,0,6.84,1.37,9.1,2.91c0.26,0.17,0.51,0.35,0.75,0.53c0.19,0.13,0.37,0.27,0.54,0.41c1.92,1.55,3,2.99,3.11,3.14 c0-7.74-1.88-12.67-1.99-12.98c1.41,0.63,2.66,1.39,3.77,2.22v0.01c0.21,0.16,0.42,0.32,0.63,0.48C37.52,14.66,39,21.78,39,22h0.07 c4.35,0.04,6.99,3.87,7.73,5.48c0.1,0.22,0.17,0.4,0.2,0.52c1.63-1.75,3-3,8-3c-2.3,0.64-4.5,2.75-5,4h9 c-0.83,0.52-1.69,1.02-2.59,1.49c-1.66,0.88-3.45,1.69-5.4,2.51c5,0,11.99,2,11.99,2s-0.69,1.04-2.27,2.5 c-1.11,1.02-2.67,2.26-4.73,3.5L62,45z"/>
    <path fill="#a9a7ae"
          d="M13 30c1.9 0 3.76.03 5.89.96-.38 1.43-1.8 2.39-3.3 2.18C14.71 33.02 13.82 33 13 33c-4.01 0-6.94 1.59-8.88 3.21C3.14 35.7 2.1 35.28 1 35 4.01 31.99 8.11 30 13 30zM24.6 15.91c-.75 1.35-2.42 1.9-3.85 1.26C19.06 16.39 17.29 16 15.5 16c-2.83 0-4.84.61-5.92 1.06C8.76 16.35 7.9 15.66 7 15c0 0 3-2 8.5-2C19.26 13 22.34 14.37 24.6 15.91zM32.36 16.24c.14 1.93-1.3 3.61-3.23 3.75-.04 0-.09.01-.13 0 0-7.74-1.88-12.67-1.99-12.98 1.41.63 2.66 1.39 3.77 2.22v.01c.21.16.42.32.63.48C31.79 11.44 32.17 13.64 32.36 16.24zM63 35c0 0-.69 1.04-2.27 2.5-1.64-.4-4.41-1.03-7.07-1.33-1.59-.18-2.76-1.58-2.65-3.17C56.01 33 63 35 63 35zM46.8 27.48C46.29 27.83 45.7 28 45.11 28c-.82 0-1.64-.34-2.24-1-.43-.49-1.15-1.16-2.1-1.59-1.33-.6-2.01-2.04-1.7-3.41C43.42 22.04 46.06 25.87 46.8 27.48z"/>
    <path fill="#faefde"
          d="M45,45c0,0,0-4.064,0-9c0,0-4,4-7,6c0,0,1-3,1-9c-4.936,3.085-10,8-10,8c-1.234-2.468-1-5.532-1-8 c0,0-4,3-4,8v6l-3-1.745c0,0.418,0,0.71,0,0.745c0,1.112,0.064,5.102,2,8.438C24,56.375,29.02,61,34.5,61 c5.52,0,10.5-4.625,11.5-6.563c1.936-3.336,2-7.326,2-8.438c0-0.204,0-0.737,0-1.348C47.166,44.869,46.228,45,45,45z"/>
    <path fill="#efd8be"
          d="M23 54.44c-1.43-.8-2.63-1.84-3.6-2.7-2.35-2.06-3.4-4.93-3.4-7.86-.03-.28.17-.74.4-.82.33-.11.89-.06 1.17.12l2.84 1.73C20.85 45.3 21 45.4 21 46 21 47.11 21.06 51.1 23 54.44zM53 43.88c0 2.93-1.05 5.8-3.4 7.86-.97.86-2.17 1.9-3.6 2.7 1.94-3.34 2-7.33 2-8.44 0-.6.15-.7.59-1.09l2.84-1.73c.28-.18.84-.23 1.17-.12C52.83 43.14 53.03 43.6 53 43.88zM34.5 61c3.482 0 6.747-1.841 8.936-3.686-.893-1.26-2.608-1.657-3.961-.859C38.281 57.16 36.448 58 34.5 58c-1.938 0-3.774-.845-4.975-1.553-1.356-.8-3.069-.402-3.961.858C27.761 59.153 31.037 61 34.5 61z"/>
    <path fill="#8d6c9f"
          d="M10 55c-.342 0-.663-.175-.847-.469-.2-.318-.204-.723-.01-1.046l2.469-4.115C10.519 48.828 8.45 48 6 48c-.38 0-.728-.216-.896-.557-.169-.34-.13-.747.101-1.05.08-.104 1.791-2.313 5.162-3.822-1.553-1.801-5.16-5.468-9.614-6.603-.348-.089-.622-.357-.717-.704s.003-.718.257-.972C3.757 30.83 8.151 29 13 29c1.325 0 2.775 0 4.371.388-2.063-5.246-5.589-9.602-10.966-13.584C6.143 15.61 5.992 15.301 6 14.975c.008-.325.174-.626.445-.807C6.578 14.08 9.763 12 15.5 12c5.883 0 10.143 3.102 12.42 5.296-.361-6.112-1.833-9.883-1.849-9.926-.15-.378-.057-.811.238-1.092.294-.282.729-.356 1.101-.19 8.522 3.835 11.698 12.046 12.421 14.954 3.761.38 6.311 3.277 7.467 5.242C48.85 24.874 50.714 24 55 24c.5 0 .923.37.991.865.067.496-.241.965-.724 1.099-1.267.352-2.472 1.217-3.299 2.037H59c.445 0 .837.294.961.722.123.428-.051.886-.427 1.124-1.34.846-2.797 1.643-4.51 2.461 4.097.554 8.032 1.668 8.25 1.731.308.088.554.317.664.617s.07.634-.106.899c-.079.118-1.82 2.687-5.996 5.468l4.719 3.146C62.833 44.354 63 44.666 63 45s-.167.646-.445.832l-5.168 3.445 1.445 2.168c.204.307.224.701.05 1.026S58.369 53 58 53h-9v-2h7.132l-.964-1.445c-.307-.46-.183-1.08.277-1.387L60.197 45l-4.752-3.168c-.285-.19-.453-.513-.445-.855.009-.343.191-.657.485-.834 2.895-1.737 4.748-3.479 5.751-4.572C58.94 34.998 54.44 34 51 34c-.477 0-.887-.337-.98-.804-.094-.468.156-.936.596-1.119 1.745-.728 3.24-1.406 4.57-2.077H50c-.332 0-.642-.165-.828-.439-.186-.274-.224-.624-.101-.932.248-.62.77-1.34 1.463-2.032-1.32.489-2.014 1.235-2.802 2.083-.249.269-.629.38-.981.288-.355-.091-.632-.37-.721-.726C45.896 27.708 43.475 23 39 23c-.461 0-.861-.314-.971-.762-.014-.055-.022-.11-.026-.165-.106-.529-1.906-8.566-9.332-13.067C29.266 11.276 30 15.077 30 20c0 .434-.281.818-.694.951-.412.131-.866-.016-1.119-.369C28.14 20.517 23.362 14 15.5 14c-3.086 0-5.321.654-6.621 1.181 5.622 4.465 9.158 9.431 11.074 15.519.119.375.005.786-.289 1.047-.293.262-.715.327-1.074.165C16.559 31 14.75 31 13 31c-4.507 0-7.821 1.756-10.047 3.579 5.749 2.227 9.678 7.587 9.857 7.835.186.257.239.586.143.888-.095.302-.329.541-.628.644-1.782.613-3.142 1.499-4.067 2.246 3.074.517 5.188 1.904 5.296 1.977.444.296.578.889.303 1.347l-1.987 3.312 9.039-.822.181 1.992-11 1C10.06 54.999 10.03 55 10 55zM33.049 5.697c-.195 0-.393-.057-.566-.177-.455-.313-.569-.936-.256-1.391l1.135-1.647c.313-.454.937-.569 1.391-.256.455.313.569.936.256 1.391l-1.135 1.647C33.68 5.546 33.367 5.697 33.049 5.697zM37.035 9.104c-.265 0-.528-.104-.726-.312-.38-.401-.363-1.034.037-1.414l1.451-1.377c.4-.38 1.033-.362 1.414.037.38.401.363 1.034-.037 1.414L37.724 8.83C37.53 9.013 37.282 9.104 37.035 9.104z"/>
    <path fill="#fff" d="M25,43c0,0-1,2.062-1,4c0,2,1,3,1,3h6l0.898-2.559L25,43z"/>
    <path fill="#8d6c9f"
          d="M30.999,48c-0.198,0-0.397-0.059-0.572-0.181c-2.46-1.722-5.415-3.57-6.874-4.3 c-0.494-0.247-0.694-0.848-0.447-1.342s0.848-0.692,1.342-0.447c1.534,0.768,4.598,2.681,7.126,4.45 c0.453,0.316,0.563,0.94,0.246,1.393C31.625,47.852,31.314,48,30.999,48z"/>
    <path fill="#8d6c9f" d="M28.5 45A1.5 2 0 1 0 28.5 49A1.5 2 0 1 0 28.5 45Z"/>
    <path fill="#fff" d="M44,43c0,0,1,2.062,1,4c0,2-1,3-1,3h-6l-0.898-2.559L44,43z"/>
    <path fill="#8d6c9f"
          d="M38.001,48c0.198,0,0.397-0.059,0.572-0.181c2.46-1.722,5.415-3.57,6.874-4.3 c0.494-0.247,0.694-0.848,0.447-1.342s-0.848-0.692-1.342-0.447c-1.534,0.768-4.598,2.681-7.126,4.45 c-0.453,0.316-0.563,0.94-0.246,1.393C37.375,47.852,37.685,48,38.001,48z"/>
    <path fill="#8d6c9f"
          d="M40.5 45A1.5 2 0 1 0 40.5 49 1.5 2 0 1 0 40.5 45zM40.256 13.257c-.332 0-.657-.165-.847-.467-.295-.467-.154-1.084.313-1.379l1.692-1.067c.467-.293 1.086-.155 1.379.313.295.467.154 1.084-.313 1.379l-1.692 1.067C40.623 13.207 40.438 13.257 40.256 13.257zM42.635 17.945c-.401 0-.78-.244-.934-.642-.198-.516.06-1.094.575-1.292l1.867-.718c.512-.198 1.093.059 1.292.575.198.516-.06 1.094-.575 1.292l-1.867.718C42.876 17.924 42.754 17.945 42.635 17.945zM34.5 62c-6.126 0-11.345-5.081-12.389-7.103l1.777-.918C24.818 55.78 29.55 60 34.5 60s9.682-4.22 10.611-6.021l1.777.918C45.845 56.919 40.627 62 34.5 62z"/>
    <path fill="#8d6c9f"
          d="M23 55.44c-.167 0-.335-.042-.488-.128-1.47-.823-2.671-1.846-3.774-2.823C16.338 50.386 15.01 47.342 15 43.92c-.042-.689.365-1.559 1.071-1.805.641-.212 1.512-.114 2.039.223l2.82 1.719c.05.03.098.065.143.104C21.658 44.677 22 45.05 22 46c0 1.766.242 5.145 1.865 7.938.226.39.164.883-.152 1.203C23.52 55.338 23.261 55.44 23 55.44zM17.013 44.022c.04 2.833 1.121 5.278 3.046 6.966.223.197.449.396.681.595C20.121 49.391 20 47.3 20 46c0-.121-.009-.162-.009-.163-.012.016-.086-.039-.178-.12l-2.763-1.684C17.04 44.029 17.028 44.025 17.013 44.022zM46 55.44c-.261 0-.52-.103-.713-.299-.315-.32-.378-.813-.151-1.203C46.338 51.868 47 49.049 47 46c0-.949.342-1.322.863-1.782.044-.039.156-.131.206-.161l2.84-1.73c.508-.326 1.377-.425 2.005-.216.722.251 1.129 1.12 1.086 1.81-.011 3.423-1.338 6.466-3.741 8.572-1.098.974-2.298 1.996-3.771 2.82C46.336 55.398 46.167 55.44 46 55.44zM49 45.885C49.002 45.9 49 45.94 49 46c0 1.3-.121 3.391-.739 5.582.229-.196.455-.395.676-.59 1.944-1.705 3.027-4.175 3.063-6.972-.022.005-.043.011-.058.017l-2.758 1.682C49.096 45.796 49.04 45.842 49 45.885zM52.006 43.772L52.006 43.772 52.006 43.772z"/>
    <path fill="#8d6c9f"
          d="M24 48c-.174 0-.348-.045-.503-.136l-6.875-4 1.006-1.729L23 45.262V41c0-5.438 4.22-8.665 4.4-8.8.303-.228.708-.265 1.047-.095C28.786 32.275 29 32.621 29 33c0 .335-.004.682-.009 1.036-.021 1.691-.043 3.562.412 5.215 1.773-1.626 5.426-4.823 9.066-7.099.309-.192.698-.204 1.015-.026C39.803 32.302 40 32.636 40 33c0 2.858-.222 5.057-.462 6.599 2.39-1.947 4.725-4.275 4.755-4.306.286-.286.716-.373 1.09-.217C45.757 35.23 46 35.596 46 36v7.967c1.863-.131 2.946-.642 4.475-1.361.349-.165.716-.338 1.115-.518l.82 1.824c-.388.174-.744.343-1.083.502C49.447 45.3 47.963 46 45 46c-.553 0-1-.447-1-1v-6.654c-1.463 1.362-3.615 3.266-5.445 4.486-.354.236-.822.223-1.162-.037-.339-.26-.477-.706-.341-1.111.007-.023.742-2.316.913-6.801-4.251 2.952-8.224 6.792-8.269 6.835-.228.223-.551.324-.864.268-.314-.053-.584-.253-.727-.538-.939-1.878-1.107-3.977-1.122-5.958C26.026 36.738 25 38.63 25 41v6c0 .357-.191.688-.501.867C24.344 47.956 24.172 48 24 48zM34.5 56c-2.187 0-3.192-1.257-3.3-1.4-.332-.441-.242-1.068.2-1.399.443-.33 1.069-.242 1.4.2.007.006.515.6 1.7.6s1.693-.594 1.715-.619c.346-.415.973-.491 1.396-.154.426.336.514.939.188 1.373C37.692 54.743 36.687 56 34.5 56z"/>
</svg>